<?xml version="1.0" encoding="utf-8"?>
<!-- Generator: Adobe Illustrator 27.7.0, SVG Export Plug-In . SVG Version: 6.00 Build 0)  -->
<svg version="1.1" id="nikto_x5F_with_x5F_sub" xmlns="http://www.w3.org/2000/svg" xmlns:xlink="http://www.w3.org/1999/xlink"
	 x="0px" y="0px" viewBox="0 0 481.21 135.12" style="enable-background:new 0 0 481.21 135.12;" xml:space="preserve">
<g>
	<path d="M59.17,30.05L45.09,58.08c9.46-8.19,16.54-13.78,21.24-16.79c6.89-4.35,12.83-7.32,17.83-8.88c5-1.57,9.69-2.35,14.08-2.35
		c3.94,0,7.31,0.84,10.11,2.52c2.8,1.68,4.2,3.87,4.2,6.57c0,2.44-0.91,5.4-2.73,8.89l-14.54,27.9c-1.21,2.44-1.82,4.03-1.82,4.77
		c0,0.44,0.28,0.83,0.85,1.18c0.57,0.35,1.15,0.52,1.76,0.52c0.76,0,1.55-0.17,2.39-0.52c2.65-1.26,5.34-3.05,8.06-5.36
		c0.68-0.61,1.78-1.52,3.29-2.74l4.32,1.5C103.01,86.02,91.31,91.4,79.05,91.4c-4.69,0-8.37-0.7-11.02-2.09
		c-2.65-1.39-3.98-3.14-3.98-5.23c0-1.83,0.91-4.55,2.73-8.17l14.2-27.9c0.98-1.83,1.48-3.18,1.48-4.05c0-0.48-0.34-0.9-1.02-1.27
		c-0.68-0.37-1.48-0.56-2.39-0.56c-2.88,0-6.36,1.13-10.45,3.4c-10.45,5.75-20.56,14.31-30.32,25.67l-9.31,19.4H0l21.24-41.94
		c2.04-4.14,3.07-7.08,3.07-8.82c0-0.74-0.3-1.36-0.91-1.86c-0.61-0.5-1.59-0.89-2.95-1.18c-1.36-0.28-3.94-0.42-7.72-0.42
		l1.25-2.48l38.27-3.85H59.17z"/>
	<path d="M185.69,30.05L162.41,76.5c-1.29,2.66-1.93,4.4-1.93,5.23c0,0.48,0.34,0.93,1.02,1.34c0.68,0.41,1.4,0.62,2.16,0.62
		c1.29,0,2.57-0.33,3.86-0.98c3.41-1.61,7.5-4.53,12.27-8.75l3.86,1.31c-11.43,11.45-23.59,17.18-36.46,17.18
		c-4.92,0-8.84-0.79-11.75-2.38c-2.92-1.59-4.37-3.6-4.37-6.04c0-1.61,0.64-3.66,1.93-6.14l15.79-31.23c1.51-3,2.27-5.27,2.27-6.79
		c0-0.96-0.72-1.81-2.16-2.55s-3.41-1.11-5.91-1.11c-1.14,0-2.5,0.02-4.09,0.07l1.48-2.61l38.5-3.59H185.69z M178.65,0
		c4.69,0,8.65,0.94,11.87,2.81c3.22,1.87,4.83,4.14,4.83,6.79c0,2.66-1.63,4.92-4.88,6.79c-3.26,1.87-7.19,2.81-11.81,2.81
		c-4.54,0-8.44-0.94-11.7-2.81c-3.26-1.87-4.88-4.14-4.88-6.79c0-2.66,1.61-4.92,4.83-6.79C170.12,0.94,174.03,0,178.65,0z"/>
	<path d="M266.79,0l-31.35,61.8l26.01-13.85l8.63-4.44c2.5-1.48,4.24-2.74,5.22-3.79c0.61-0.65,0.91-1.26,0.91-1.83
		c0-0.91-0.76-1.68-2.27-2.29c-1.51-0.61-5.19-1.02-11.02-1.24l1.25-2.48h46.22l-1.14,2.48c-5.45,0.74-9.88,1.59-13.29,2.55
		c-2.65,0.74-5.91,1.96-9.77,3.66c-5.75,2.57-9.88,4.55-12.38,5.94l-5,2.68l6.93,18.03c2.65,6.97,4.62,11,5.91,12.09
		c0.83,0.65,1.82,0.98,2.95,0.98c2.65,0,5.79-1.79,9.43-5.36c0.53-0.48,1.25-1.15,2.16-2.03l4.2,1.5
		c-5.68,6.1-12.08,10.74-19.19,13.92c-4.77,2.13-9.09,3.2-12.95,3.2c-3.86,0-7.08-0.79-9.65-2.38c-2.57-1.59-5.15-5.76-7.72-12.51
		l-5.68-14.83l-12.49,6.4l-11.36,22.41H192.4l37.71-73.76c1.59-3.14,2.39-5.25,2.39-6.34c0-1-0.38-1.82-1.14-2.45
		c-0.76-0.63-1.8-1.1-3.13-1.4c-1.33-0.31-3.95-0.46-7.89-0.46l1.02-2.42L259.97,0H266.79z"/>
	<path d="M374,14.11l-9.09,17.77h14.88l-3.98,7.51h-14.65L342.2,77.29c-1.21,2.35-1.82,4.14-1.82,5.36c0,0.57,0.34,1.06,1.02,1.47
		c0.68,0.41,1.44,0.62,2.27,0.62c1.29,0,2.61-0.3,3.98-0.91c3.48-1.52,7.53-4.18,12.15-7.97l3.98,1.44
		c-5.22,5.23-10.98,9.06-17.26,11.5c-6.28,2.44-12.46,3.66-18.51,3.66c-5.15,0-9.15-0.75-11.98-2.25c-2.85-1.5-4.26-3.41-4.26-5.72
		c0-2.53,0.98-5.77,2.95-9.73l17.94-35.34h-15.45l2.27-4.83c9.69-2.05,17.87-4.44,24.53-7.19c6.66-2.74,14.69-7.16,24.08-13.26H374z
		"/>
	<path d="M448.39,30.05c5.98,0,11.6,0.79,16.86,2.38c5.26,1.59,9.24,3.8,11.93,6.63c2.68,2.83,4.03,5.97,4.03,9.41
		c0,7.06-3.43,14.11-10.28,21.17c-6.85,7.06-15.88,12.62-27.08,16.69s-22.49,6.11-33.84,6.11c-10.3,0-18.27-1.76-23.9-5.29
		c-5.65-3.53-8.46-7.84-8.46-12.94c0-6.05,2.1-11.73,6.3-17.02c4.21-5.29,9.54-9.91,16.02-13.85c6.47-3.94,13.91-7.14,22.31-9.6
		C430.67,31.28,439.38,30.05,448.39,30.05z M443.74,33.51c-4.01,0-7.34,0.68-9.99,2.03c-5.3,2.74-11.28,9.16-17.94,19.24
		c-6.66,10.08-9.99,19.17-9.99,27.28c0,2,1.06,3.66,3.18,4.97c2.12,1.31,4.62,1.96,7.5,1.96c2.95,0,5.57-0.52,7.84-1.57
		c3.33-1.57,7.42-5.08,12.27-10.55c4.85-5.47,8.82-11.5,11.93-18.1c3.1-6.6,4.66-12.64,4.66-18.13c0-2.26-0.95-4.02-2.84-5.26
		C448.43,34.14,446.23,33.51,443.74,33.51z"/>
</g>
<g>
	<path d="M62.22,127.93c0.73-0.04,1.23-0.19,1.52-0.46c0.29-0.27,0.43-0.79,0.43-1.58v-8.92c0-0.71-0.13-1.2-0.4-1.48
		c-0.27-0.28-0.79-0.44-1.55-0.49v-0.56h15.45v3.66h-0.7c-0.29-1.14-0.68-1.88-1.18-2.22c-0.5-0.34-1.46-0.5-2.87-0.5h-3.48v10.59
		c0,0.7,0.15,1.2,0.43,1.49c0.29,0.29,0.87,0.45,1.75,0.47v0.56h-9.4V127.93z"/>
	<path d="M87.93,114.02c1.53,0,2.95,0.32,4.26,0.95c1.32,0.63,2.32,1.53,3,2.69c0.68,1.16,1.03,2.43,1.03,3.82
		c0,1.99-0.63,3.66-1.9,5c-1.53,1.62-3.64,2.43-6.33,2.43c-2.64,0-4.68-0.74-6.11-2.22c-1.43-1.48-2.14-3.2-2.14-5.15
		c0-2.01,0.73-3.77,2.19-5.26C83.38,114.76,85.38,114.02,87.93,114.02z M88,115.08c-0.64,0-1.19,0.19-1.64,0.58
		c-0.46,0.39-0.76,1.15-0.9,2.28c-0.15,1.14-0.22,2.72-0.22,4.74c0,1.07,0.09,2.07,0.27,3c0.14,0.71,0.43,1.25,0.88,1.62
		c0.45,0.37,0.96,0.56,1.54,0.56c0.56,0,1.03-0.13,1.41-0.38c0.49-0.34,0.81-0.82,0.98-1.43c0.25-0.95,0.38-2.87,0.38-5.77
		c0-1.7-0.12-2.87-0.36-3.51c-0.24-0.64-0.59-1.1-1.05-1.39C88.95,115.19,88.53,115.08,88,115.08z"/>
	<path d="M105.68,127.05v5.23c0,0.72,0.07,1.21,0.22,1.47c0.15,0.26,0.37,0.45,0.67,0.57c0.3,0.12,0.89,0.18,1.76,0.18v0.56H98.32
		v-0.56c0.78-0.02,1.35-0.2,1.73-0.53c0.25-0.23,0.38-0.83,0.38-1.79v-14.83c0-0.99-0.14-1.62-0.43-1.9
		c-0.29-0.28-0.85-0.43-1.67-0.47v-0.56h7.37v1.85c0.61-0.72,1.24-1.24,1.88-1.56c0.91-0.47,1.91-0.71,2.99-0.71
		c1.29,0,2.46,0.33,3.52,0.98c1.06,0.65,1.86,1.55,2.41,2.7c0.55,1.15,0.83,2.38,0.83,3.7c0,1.42-0.29,2.72-0.86,3.9
		c-0.57,1.18-1.4,2.07-2.48,2.69c-1.08,0.62-2.29,0.92-3.62,0.92c-0.97,0-1.87-0.17-2.71-0.51
		C107.03,128.13,106.37,127.69,105.68,127.05z M105.68,125.54c1.08,1.22,2.23,1.83,3.46,1.83c0.68,0,1.23-0.29,1.67-0.86
		c0.65-0.84,0.98-2.44,0.98-4.81c0-2.42-0.36-4.08-1.07-4.97c-0.48-0.59-1.11-0.89-1.92-0.89c-1.27,0-2.31,0.73-3.12,2.19V125.54z"
		/>
	<path d="M120.3,128.48v-0.56c0.73,0,1.24-0.15,1.53-0.44c0.3-0.3,0.44-0.86,0.44-1.69v-8.62c0-0.88-0.14-1.46-0.43-1.75
		c-0.29-0.29-0.8-0.43-1.54-0.43v-0.56h8.94v0.56c-0.63,0.02-1.07,0.15-1.32,0.39c-0.26,0.24-0.39,0.79-0.39,1.64v3.71h5.03v-3.71
		c0-0.7-0.09-1.21-0.28-1.54s-0.66-0.49-1.41-0.49v-0.56h8.92v0.56c-0.73,0-1.24,0.14-1.53,0.43c-0.29,0.29-0.44,0.76-0.44,1.43
		v8.94c0,0.88,0.14,1.45,0.43,1.71c0.29,0.26,0.8,0.4,1.54,0.42v0.56h-8.92v-0.56c0.63-0.01,1.06-0.13,1.31-0.35
		c0.25-0.23,0.38-0.78,0.38-1.67v-4.22h-5.03v4.12c0,0.89,0.13,1.47,0.39,1.74c0.26,0.27,0.7,0.4,1.32,0.4v0.56H120.3z"/>
	<path d="M153.05,128.48v-0.56c1.13,0,1.69-0.67,1.69-2.01v-6.88l-5.03,6.88c0.01,1.31,0.58,1.98,1.71,2.01v0.56h-8.95v-0.56
		c0.72,0,1.22-0.16,1.52-0.48s0.45-0.88,0.45-1.68v-8.67c0-1.4-0.66-2.1-1.97-2.1v-0.56h8.95v0.56c-0.65,0.02-1.1,0.17-1.34,0.45
		c-0.24,0.28-0.37,0.83-0.37,1.65v6.85l5.03-6.97c-0.01-0.74-0.15-1.26-0.41-1.55c-0.26-0.29-0.69-0.44-1.28-0.44v-0.56h8.94v0.56
		c-0.68,0.01-1.18,0.15-1.5,0.41c-0.33,0.26-0.49,0.76-0.49,1.5v8.94c0,0.83,0.15,1.39,0.44,1.67c0.3,0.28,0.81,0.42,1.55,0.42v0.56
		H153.05z"/>
	<path d="M183.56,114.44v0.56c-0.64,0.05-1.1,0.21-1.4,0.47c-0.3,0.26-0.44,0.83-0.44,1.7v8.31c0,1.07,0.12,1.72,0.37,1.96
		c0.25,0.24,0.74,0.4,1.47,0.5v0.56h-8.98v-0.56c0.85-0.1,1.38-0.28,1.58-0.53c0.2-0.25,0.3-0.9,0.3-1.94v-3.53
		c-2.52,0.64-4.49,0.96-5.92,0.96c-1.03,0-1.91-0.19-2.65-0.58c-0.74-0.39-1.21-0.8-1.42-1.25c-0.21-0.45-0.31-1.07-0.31-1.86v-1.89
		c0-0.95-0.11-1.56-0.34-1.81c-0.23-0.26-0.73-0.42-1.52-0.5v-0.56h8.78v0.56c-0.51,0.06-0.92,0.2-1.21,0.43
		c-0.29,0.23-0.44,0.8-0.44,1.74v2.04c0,0.88,0.12,1.48,0.35,1.8c0.23,0.32,0.75,0.48,1.57,0.48c0.73,0,1.77-0.15,3.12-0.47v-3.71
		c0-0.87-0.11-1.45-0.32-1.74c-0.22-0.29-0.67-0.48-1.37-0.58v-0.56H183.56z"/>
	<path d="M186.34,128.48v-0.56c0.73,0,1.24-0.15,1.53-0.44c0.3-0.3,0.44-0.86,0.44-1.69v-8.62c0-0.88-0.14-1.46-0.43-1.75
		c-0.29-0.29-0.8-0.43-1.54-0.43v-0.56h8.94v0.56c-0.63,0.02-1.07,0.15-1.32,0.39c-0.26,0.24-0.39,0.79-0.39,1.64v3.71h5.03v-3.71
		c0-0.7-0.09-1.21-0.28-1.54c-0.19-0.33-0.66-0.49-1.41-0.49v-0.56h8.93v0.56c-0.73,0-1.24,0.14-1.53,0.43
		c-0.29,0.29-0.44,0.76-0.44,1.43v8.94c0,0.88,0.14,1.45,0.43,1.71c0.29,0.26,0.8,0.4,1.54,0.42v0.56h-8.93v-0.56
		c0.63-0.01,1.06-0.13,1.31-0.35c0.25-0.23,0.38-0.78,0.38-1.67v-4.22h-5.03v4.12c0,0.89,0.13,1.47,0.39,1.74
		c0.26,0.27,0.7,0.4,1.32,0.4v0.56H186.34z"/>
	<path d="M218.19,126.41c-2.14,1.51-4.07,2.27-5.77,2.27c-1,0-1.83-0.26-2.5-0.79c-0.66-0.53-1-1.18-1-1.97
		c0-1.07,0.58-2.04,1.73-2.89c1.15-0.86,3.67-1.99,7.54-3.42v-1.41c0-1.06-0.07-1.73-0.22-2.01c-0.14-0.28-0.42-0.52-0.82-0.72
		c-0.4-0.21-0.85-0.31-1.35-0.31c-0.81,0-1.48,0.15-2.01,0.44c-0.33,0.18-0.49,0.39-0.49,0.63c0,0.21,0.18,0.47,0.53,0.78
		c0.48,0.43,0.72,0.85,0.72,1.25c0,0.49-0.23,0.91-0.69,1.25c-0.46,0.35-1.06,0.52-1.79,0.52c-0.79,0-1.45-0.19-1.98-0.57
		c-0.53-0.38-0.8-0.83-0.8-1.34c0-0.72,0.36-1.41,1.07-2.07c0.71-0.66,1.71-1.16,2.99-1.51c1.28-0.35,2.61-0.53,3.98-0.53
		c1.67,0,2.98,0.28,3.96,0.85c0.97,0.57,1.6,1.18,1.89,1.84c0.18,0.42,0.27,1.39,0.27,2.9v5.45c0,0.64,0.03,1.04,0.09,1.21
		c0.06,0.17,0.16,0.29,0.28,0.37c0.13,0.08,0.27,0.12,0.43,0.12c0.33,0,0.66-0.19,1-0.56l0.56,0.36c-0.63,0.74-1.27,1.28-1.95,1.61
		c-0.67,0.34-1.43,0.5-2.28,0.5c-1,0-1.78-0.19-2.35-0.56C218.66,127.74,218.32,127.17,218.19,126.41z M218.19,125.31v-4.7
		c-1.52,0.71-2.64,1.47-3.38,2.28c-0.49,0.54-0.73,1.09-0.73,1.64c0,0.46,0.21,0.87,0.62,1.22c0.31,0.27,0.75,0.41,1.31,0.41
		C216.64,126.15,217.36,125.87,218.19,125.31z"/>
	<path d="M245.79,114.44v0.56c-0.59,0-1.04,0.13-1.36,0.38c-0.32,0.25-0.48,0.85-0.48,1.8v8.01c0,1.04,0.14,1.75,0.42,2.13
		c0.28,0.38,0.75,0.58,1.43,0.62v0.56h-8.97v-0.56c1.24-0.05,1.86-0.89,1.86-2.52v-3.26c-0.45,0.02-0.71,0.03-0.77,0.03
		c-0.19,0-0.48-0.01-0.88-0.03l-2.99,6.34h-6.95v-0.56c1.36-0.01,2.34-0.63,2.91-1.86l2.03-4.37c-2.66-0.66-3.99-1.85-3.99-3.57
		c0-0.88,0.35-1.63,1.05-2.25c0.7-0.62,1.52-1.01,2.47-1.18c0.94-0.17,2.62-0.25,5.02-0.25H245.79z M238.69,115.59
		c-0.74-0.14-1.36-0.21-1.86-0.21c-1.06,0-1.87,0.26-2.41,0.77c-0.55,0.52-0.82,1.16-0.82,1.95c0,0.96,0.38,1.73,1.13,2.29
		c0.75,0.57,1.87,0.85,3.36,0.85c0.14,0,0.34,0,0.6-0.01V115.59z"/>
	<path d="M258.25,114.44h9.69c2.03,0,3.7,0.29,4.99,0.88c1.28,0.59,1.93,1.45,1.93,2.61c0,1.55-1.34,2.6-4.03,3.14
		c3.63,0.34,5.44,1.55,5.44,3.64c0,1.26-0.74,2.21-2.2,2.84c-1.46,0.63-3.47,0.95-6.03,0.95h-9.79v-0.56
		c0.87-0.07,1.4-0.23,1.61-0.48c0.2-0.25,0.31-0.74,0.31-1.47v-8.37c0-1.13-0.12-1.84-0.35-2.12c-0.23-0.28-0.76-0.45-1.57-0.5
		V114.44z M265.69,120.7c2.98-0.07,4.48-0.96,4.48-2.66c0-1.74-1.49-2.63-4.48-2.66V120.7z M265.69,121.65v4.61
		c0,0.47,0.1,0.8,0.28,1c0.19,0.2,0.6,0.29,1.22,0.29c1.05,0,1.95-0.3,2.69-0.89c0.73-0.59,1.1-1.34,1.1-2.25
		c0-0.96-0.41-1.66-1.23-2.1C268.95,121.87,267.58,121.65,265.69,121.65z"/>
	<path d="M308.12,114.44v0.56c-0.83,0.07-1.37,0.25-1.62,0.53c-0.25,0.29-0.38,0.89-0.38,1.81v8.37c0,0.88,0.13,1.47,0.41,1.76
		c0.28,0.29,0.81,0.45,1.58,0.47v0.56h-8.95v-0.56c0.78,0,1.26-0.17,1.43-0.5c0.18-0.33,0.26-0.87,0.26-1.62v-10.42h-5.04v10.32
		c0,0.92,0.11,1.52,0.34,1.8c0.23,0.28,0.68,0.42,1.37,0.42v0.56h-8.94v-0.56c0.76-0.01,1.28-0.17,1.56-0.47
		c0.28-0.3,0.42-0.94,0.42-1.92v-8.4c0-0.92-0.16-1.51-0.46-1.76c-0.31-0.26-0.81-0.38-1.51-0.38v-0.56H308.12z"/>
	<path d="M318.81,129.05l-5.67-10.41c-0.86-1.57-1.48-2.54-1.89-2.9c-0.41-0.36-0.9-0.61-1.47-0.75v-0.56h9.34v0.56
		c-0.62,0.02-1.05,0.12-1.3,0.29c-0.25,0.17-0.38,0.38-0.38,0.62c0,0.38,0.31,1.13,0.94,2.25l3,5.5l2.05-4.25
		c0.74-1.51,1.11-2.56,1.11-3.15c0-0.37-0.15-0.67-0.46-0.89c-0.31-0.22-0.85-0.34-1.62-0.36v-0.56h5.88v0.56
		c-0.58,0.05-1.05,0.23-1.41,0.53c-0.37,0.31-0.97,1.34-1.82,3.12l-5.02,10.41c-1.27,2.6-2.2,4.21-2.82,4.81
		c-0.87,0.84-1.95,1.26-3.25,1.26c-1.04,0-1.88-0.24-2.53-0.71c-0.65-0.48-0.97-1.05-0.97-1.72c0-0.58,0.22-1.06,0.67-1.44
		c0.45-0.38,0.99-0.57,1.64-0.57c0.63,0,1.13,0.16,1.52,0.48c0.38,0.32,0.58,0.82,0.59,1.49c0.01,0.38,0.07,0.63,0.17,0.74
		c0.1,0.11,0.24,0.17,0.43,0.17c0.3,0,0.62-0.15,0.96-0.44c0.5-0.42,1.09-1.38,1.77-2.88L318.81,129.05z"/>
	<path d="M344.32,124.86l0.59,0.36c-0.83,1.24-1.86,2.17-3.09,2.77c-1.23,0.61-2.54,0.91-3.94,0.91c-2.34,0-4.22-0.71-5.62-2.12
		c-1.4-1.41-2.1-3.11-2.1-5.09c0-1.91,0.64-3.59,1.91-5.05c1.54-1.75,3.66-2.63,6.37-2.63c1.81,0,3.26,0.37,4.33,1.1
		c1.07,0.73,1.6,1.55,1.6,2.45c0,0.57-0.22,1.03-0.65,1.37s-1,0.51-1.7,0.51c-0.74,0-1.35-0.2-1.83-0.59
		c-0.48-0.39-0.78-1.09-0.89-2.09c-0.07-0.63-0.26-1.07-0.55-1.32c-0.29-0.25-0.63-0.38-1.01-0.38c-0.6,0-1.12,0.26-1.54,0.77
		c-0.65,0.77-0.98,1.95-0.98,3.54c0,1.32,0.26,2.59,0.79,3.79c0.53,1.21,1.24,2.11,2.16,2.7c0.69,0.43,1.5,0.65,2.44,0.65
		c0.61,0,1.2-0.12,1.75-0.35C342.92,125.94,343.57,125.5,344.32,124.86z"/>
	<path d="M350.62,128.48v-0.56c0.75,0,1.27-0.16,1.55-0.47c0.28-0.31,0.42-0.93,0.42-1.85v-10.23h-1.75c-1.23,0-2.08,0.18-2.55,0.53
		c-0.48,0.35-0.85,1.08-1.13,2.19h-0.7v-3.66h17.51v3.66h-0.7c-0.23-1-0.56-1.7-0.99-2.11c-0.44-0.41-1.32-0.61-2.65-0.61h-1.78
		v10.23c0,0.95,0.14,1.57,0.42,1.86c0.29,0.29,0.8,0.44,1.55,0.45v0.56H350.62z"/>
	<path d="M374.26,114.02c1.53,0,2.95,0.32,4.27,0.95c1.31,0.63,2.31,1.53,2.99,2.69c0.69,1.16,1.03,2.43,1.03,3.82
		c0,1.99-0.64,3.66-1.9,5c-1.53,1.62-3.64,2.43-6.33,2.43c-2.64,0-4.68-0.74-6.11-2.22c-1.43-1.48-2.14-3.2-2.14-5.15
		c0-2.01,0.73-3.77,2.19-5.26C369.71,114.76,371.71,114.02,374.26,114.02z M374.33,115.08c-0.64,0-1.19,0.19-1.64,0.58
		c-0.46,0.39-0.76,1.15-0.91,2.28c-0.14,1.14-0.22,2.72-0.22,4.74c0,1.07,0.09,2.07,0.27,3c0.13,0.71,0.43,1.25,0.88,1.62
		c0.45,0.37,0.97,0.56,1.54,0.56c0.56,0,1.03-0.13,1.41-0.38c0.49-0.34,0.82-0.82,0.98-1.43c0.25-0.95,0.38-2.87,0.38-5.77
		c0-1.7-0.11-2.87-0.36-3.51c-0.24-0.64-0.59-1.1-1.05-1.39C375.28,115.19,374.86,115.08,374.33,115.08z"/>
	<path d="M388.76,128.48v-0.56c0.75,0,1.27-0.16,1.55-0.47c0.28-0.31,0.42-0.93,0.42-1.85v-10.23h-1.75c-1.23,0-2.08,0.18-2.55,0.53
		c-0.48,0.35-0.85,1.08-1.13,2.19h-0.7v-3.66h17.51v3.66h-0.7c-0.23-1-0.56-1.7-0.99-2.11c-0.44-0.41-1.32-0.61-2.65-0.61H396v10.23
		c0,0.95,0.14,1.57,0.42,1.86c0.29,0.29,0.8,0.44,1.55,0.45v0.56H388.76z"/>
	<path d="M418.99,120.96h-9.64c0.11,1.86,0.73,3.33,1.86,4.42c0.87,0.83,1.91,1.25,3.12,1.25c0.75,0,1.44-0.17,2.05-0.5
		c0.62-0.34,1.27-0.94,1.97-1.81l0.64,0.33c-0.95,1.55-2,2.65-3.15,3.3c-1.16,0.65-2.49,0.97-4.01,0.97c-2.6,0-4.58-0.8-5.92-2.4
		c-1.08-1.29-1.62-2.89-1.62-4.81c0-2.34,0.8-4.21,2.38-5.6c1.59-1.39,3.44-2.08,5.57-2.08c1.78,0,3.32,0.58,4.63,1.75
		C418.19,116.93,418.89,118.66,418.99,120.96z M414.37,119.95c0-1.61-0.11-2.72-0.33-3.32c-0.22-0.6-0.56-1.06-1.02-1.37
		c-0.27-0.18-0.62-0.27-1.05-0.27c-0.66,0-1.19,0.26-1.6,0.77c-0.74,0.89-1.11,2.11-1.11,3.67v0.53H414.37z"/>
</g>
</svg>
