<?xml version="1.0" encoding="utf-8"?>
<!-- Generator: Adobe Illustrator 27.7.0, SVG Export Plug-In . SVG Version: 6.00 Build 0)  -->
<svg version="1.1" id="nikto_x5F_with_x5F_sub" xmlns="http://www.w3.org/2000/svg" xmlns:xlink="http://www.w3.org/1999/xlink"
	 x="0px" y="0px" viewBox="0 0 481.21 92.44" style="enable-background:new 0 0 481.21 92.44;" xml:space="preserve">
<g>
	<path d="M59.17,30.05L45.09,58.08c9.46-8.19,16.54-13.78,21.24-16.79c6.89-4.35,12.83-7.32,17.83-8.88c5-1.57,9.69-2.35,14.08-2.35
		c3.94,0,7.31,0.84,10.11,2.52c2.8,1.68,4.2,3.87,4.2,6.57c0,2.44-0.91,5.4-2.73,8.89l-14.54,27.9c-1.21,2.44-1.82,4.03-1.82,4.77
		c0,0.44,0.28,0.83,0.85,1.18c0.57,0.35,1.15,0.52,1.76,0.52c0.76,0,1.55-0.17,2.39-0.52c2.65-1.26,5.34-3.05,8.06-5.36
		c0.68-0.61,1.78-1.52,3.29-2.74l4.32,1.5C103.01,86.02,91.31,91.4,79.05,91.4c-4.69,0-8.37-0.7-11.02-2.09
		c-2.65-1.39-3.98-3.14-3.98-5.23c0-1.83,0.91-4.55,2.73-8.17l14.2-27.9c0.98-1.83,1.48-3.18,1.48-4.05c0-0.48-0.34-0.9-1.02-1.27
		c-0.68-0.37-1.48-0.56-2.39-0.56c-2.88,0-6.36,1.13-10.45,3.4c-10.45,5.75-20.56,14.31-30.32,25.67l-9.31,19.4H0l21.24-41.94
		c2.04-4.14,3.07-7.08,3.07-8.82c0-0.74-0.3-1.36-0.91-1.86c-0.61-0.5-1.59-0.89-2.95-1.18c-1.36-0.28-3.94-0.42-7.72-0.42
		l1.25-2.48l38.27-3.85H59.17z"/>
	<path d="M185.69,30.05L162.41,76.5c-1.29,2.66-1.93,4.4-1.93,5.23c0,0.48,0.34,0.93,1.02,1.34c0.68,0.41,1.4,0.62,2.16,0.62
		c1.29,0,2.57-0.33,3.86-0.98c3.41-1.61,7.5-4.53,12.27-8.75l3.86,1.31c-11.43,11.45-23.59,17.18-36.46,17.18
		c-4.92,0-8.84-0.79-11.75-2.38c-2.92-1.59-4.37-3.6-4.37-6.04c0-1.61,0.64-3.66,1.93-6.14l15.79-31.23c1.51-3,2.27-5.27,2.27-6.79
		c0-0.96-0.72-1.81-2.16-2.55s-3.41-1.11-5.91-1.11c-1.14,0-2.5,0.02-4.09,0.07l1.48-2.61l38.5-3.59H185.69z M178.65,0
		c4.69,0,8.65,0.94,11.87,2.81c3.22,1.87,4.83,4.14,4.83,6.79c0,2.66-1.63,4.92-4.88,6.79c-3.26,1.87-7.19,2.81-11.81,2.81
		c-4.54,0-8.44-0.94-11.7-2.81c-3.26-1.87-4.88-4.14-4.88-6.79c0-2.66,1.61-4.92,4.83-6.79C170.12,0.94,174.03,0,178.65,0z"/>
	<path d="M266.79,0l-31.35,61.8l26.01-13.85l8.63-4.44c2.5-1.48,4.24-2.74,5.22-3.79c0.61-0.65,0.91-1.26,0.91-1.83
		c0-0.91-0.76-1.68-2.27-2.29c-1.51-0.61-5.19-1.02-11.02-1.24l1.25-2.48h46.22l-1.14,2.48c-5.45,0.74-9.88,1.59-13.29,2.55
		c-2.65,0.74-5.91,1.96-9.77,3.66c-5.75,2.57-9.88,4.55-12.38,5.94l-5,2.68l6.93,18.03c2.65,6.97,4.62,11,5.91,12.09
		c0.83,0.65,1.82,0.98,2.95,0.98c2.65,0,5.79-1.79,9.43-5.36c0.53-0.48,1.25-1.15,2.16-2.03l4.2,1.5
		c-5.68,6.1-12.08,10.74-19.19,13.92c-4.77,2.13-9.09,3.2-12.95,3.2c-3.86,0-7.08-0.79-9.65-2.38c-2.57-1.59-5.15-5.76-7.72-12.51
		l-5.68-14.83l-12.49,6.4l-11.36,22.41H192.4l37.71-73.76c1.59-3.14,2.39-5.25,2.39-6.34c0-1-0.38-1.82-1.14-2.45
		c-0.76-0.63-1.8-1.1-3.13-1.4c-1.33-0.31-3.95-0.46-7.89-0.46l1.02-2.42L259.97,0H266.79z"/>
	<path d="M374,14.11l-9.09,17.77h14.88l-3.98,7.51h-14.65L342.2,77.29c-1.21,2.35-1.82,4.14-1.82,5.36c0,0.57,0.34,1.06,1.02,1.47
		c0.68,0.41,1.44,0.62,2.27,0.62c1.29,0,2.61-0.3,3.98-0.91c3.48-1.52,7.53-4.18,12.15-7.97l3.98,1.44
		c-5.22,5.23-10.98,9.06-17.26,11.5c-6.28,2.44-12.46,3.66-18.51,3.66c-5.15,0-9.15-0.75-11.98-2.25c-2.85-1.5-4.26-3.41-4.26-5.72
		c0-2.53,0.98-5.77,2.95-9.73l17.94-35.34h-15.45l2.27-4.83c9.69-2.05,17.87-4.44,24.53-7.19c6.66-2.74,14.69-7.16,24.08-13.26H374z
		"/>
	<path d="M448.39,30.05c5.98,0,11.6,0.79,16.86,2.38c5.26,1.59,9.24,3.8,11.93,6.63c2.68,2.83,4.03,5.97,4.03,9.41
		c0,7.06-3.43,14.11-10.28,21.17c-6.85,7.06-15.88,12.62-27.08,16.69s-22.49,6.11-33.84,6.11c-10.3,0-18.27-1.76-23.9-5.29
		c-5.65-3.53-8.46-7.84-8.46-12.94c0-6.05,2.1-11.73,6.3-17.02c4.21-5.29,9.54-9.91,16.02-13.85c6.47-3.94,13.91-7.14,22.31-9.6
		C430.67,31.28,439.38,30.05,448.39,30.05z M443.74,33.51c-4.01,0-7.34,0.68-9.99,2.03c-5.3,2.74-11.28,9.16-17.94,19.24
		c-6.66,10.08-9.99,19.17-9.99,27.28c0,2,1.06,3.66,3.18,4.97c2.12,1.31,4.62,1.96,7.5,1.96c2.95,0,5.57-0.52,7.84-1.57
		c3.33-1.57,7.42-5.08,12.27-10.55c4.85-5.47,8.82-11.5,11.93-18.1c3.1-6.6,4.66-12.64,4.66-18.13c0-2.26-0.95-4.02-2.84-5.26
		C448.43,34.14,446.23,33.51,443.74,33.51z"/>
</g>
</svg>
